<svg width="325" height="158" viewBox="0 0 325 158" fill="none" xmlns="http://www.w3.org/2000/svg">
<path d="M78.7443 77.3889L70 14.7407L318.17 0L324 4.50412L290.272 99.5L84.1574 82.7119L78.7443 77.3889Z" fill="#001D63"/>
<path d="M85.703 83.3889L77 20.7407L324 6L296.233 105.5L85.703 83.3889Z" fill="#0043C0" stroke="#0043C0"/>
<path d="M138.727 22.447L139.121 36.8929L117.719 37.3827L118.259 46.7038L132.734 47.6322L132.026 55.7983L117.916 58.3935L117.923 75.8733L108.215 78.9804L105.594 37.2657L102.069 37.2292L100.813 28.2882L138.727 22.447Z" fill="#001D63"/>
<path d="M144.845 39.0639C144.341 38.6431 143.937 38.0992 143.666 37.4771C143.396 36.8551 143.266 36.1725 143.287 35.4857C143.329 34.7923 143.521 34.1191 143.848 33.5207C144.176 32.9222 144.629 32.4153 145.172 32.041C146.401 31.1117 147.889 30.6658 149.386 30.7776C149.711 30.7814 150.034 30.8129 150.354 30.8718C151.503 31.056 152.577 31.6019 153.44 32.4412C153.936 32.8639 154.331 33.4087 154.592 34.0299C154.853 34.651 154.972 35.3306 154.939 36.0115C154.907 36.7048 154.722 37.3799 154.399 37.9805C154.076 38.5811 153.625 39.0897 153.083 39.4641C151.853 40.3906 150.366 40.8338 148.869 40.7196C148.577 40.7084 148.285 40.677 147.996 40.6254C146.829 40.4387 145.736 39.897 144.845 39.0639Z" fill="#001D63"/>
<path d="M152.446 45.4561L148.663 73.9921L138.289 72.5916L142.703 43.2313L152.446 45.4561Z" fill="#001D63"/>
<path d="M194.004 64.7477L193.953 64.9978C190.151 71.1625 184.22 74.4215 176.219 74.804C175.754 74.8298 175.289 74.8298 174.824 74.804C171.968 74.6402 169.189 73.8142 166.706 72.3911C166.525 72.3097 166.35 72.2138 166.185 72.1042C161.986 69.6692 158.771 64.218 158.316 56.8689C157.655 46.0401 165.113 38.7425 176.366 37.6096C177.136 37.5507 177.922 37.4772 178.678 37.4404C179.265 37.4404 179.83 37.4404 180.381 37.4404C186.716 37.1167 191.274 39.5811 193.593 41.994L190.312 45.7459L187.479 48.9827H187.442C187.446 48.9707 187.446 48.9579 187.442 48.9459C186.613 47.8413 185.526 46.9568 184.278 46.3696C183.029 45.7823 181.656 45.5101 180.278 45.5767C177.915 45.6895 175.248 46.6973 172.277 48.6002C167.102 53.4261 166.787 57.9135 171.301 62.4893C172.204 63.0704 173.07 63.6663 173.914 63.6663C175.023 64.4728 176.392 64.8349 177.753 64.6815C178.845 64.6206 179.907 64.309 180.859 63.7707C181.811 63.2324 182.627 62.4818 183.244 61.5771L183.075 60.172L178.12 60.0101H178.083L174.795 59.3701L176.006 51.0573L185.181 50.5129H185.871L194.085 50.1598L194.004 64.7477Z" fill="#001D63"/>
<path d="M228.21 19.9529L229.895 67.6442L219.899 68.1725L219.487 50.611L211.633 51.8909L213.153 65.8657L203.217 67.0117L201.937 53.461L197.19 54.2573L196.583 50.3729L201.51 48.6391L199.885 31.286L209.23 29.7307L210.899 45.2905L219.3 42.3065L218.784 20.9426L228.21 19.9529Z" fill="#001D63"/>
<path d="M271.534 27.4353L270.413 39.0826L255.258 39.3562L255.709 72.2178L241.843 73.1608L245.004 38.8739L231.561 38.4924L232.311 27.7448L271.534 27.4353Z" fill="#001D63"/>
<path d="M279.079 61.5214L272.367 60.3846L275.194 30.7549L287.357 26.6038L279.079 61.5214Z" fill="#001D63"/>
<path d="M274.752 64.8519C275.427 64.8691 276.087 65.0395 276.676 65.3486C277.265 65.6576 277.764 66.096 278.132 66.6259C278.539 67.1918 278.816 67.8306 278.946 68.5019C279.075 69.1732 279.054 69.8624 278.884 70.5257C278.584 71.9827 277.751 73.2965 276.528 74.2425C275.986 74.7171 275.348 75.0861 274.651 75.3278C273.955 75.5695 273.214 75.6791 272.472 75.6504C271.797 75.6307 271.138 75.4584 270.551 75.1482C269.964 74.838 269.466 74.3993 269.1 73.8695C268.693 73.3045 268.417 72.6668 268.287 71.9968C268.158 71.3268 268.178 70.6389 268.347 69.9766C268.647 68.5176 269.48 67.2013 270.703 66.2527C271.244 65.7793 271.881 65.4115 272.577 65.171C273.272 64.9304 274.011 64.822 274.752 64.8519Z" fill="#001D63"/>
<path d="M142.058 24.1099L142.452 38.5557L121.05 39.0455L121.59 48.3666L136.065 49.2951L135.357 57.4611L121.247 60.0564L121.254 77.5362L111.546 80.6432L108.925 38.9286L105.4 38.892L104.144 29.9511L142.058 24.1099Z" fill="#FFE000"/>
<path d="M148.176 40.7268C147.672 40.3059 147.268 39.7621 146.997 39.14C146.727 38.5179 146.597 37.8354 146.619 37.1486C146.66 36.4552 146.852 35.782 147.18 35.1835C147.507 34.5851 147.961 34.0781 148.503 33.7038C149.732 32.7746 151.22 32.3286 152.717 32.4405C153.042 32.4442 153.365 32.4757 153.685 32.5346C154.834 32.7188 155.908 33.2648 156.771 34.104C157.267 34.5268 157.662 35.0716 157.923 35.6927C158.184 36.3139 158.303 36.9934 158.27 37.6743C158.238 38.3677 158.053 39.0428 157.73 39.6433C157.408 40.2439 156.956 40.7526 156.414 41.127C155.184 42.0534 153.697 42.4966 152.2 42.3824C151.908 42.3713 151.616 42.3398 151.327 42.2883C150.16 42.1015 149.067 41.5599 148.176 40.7268Z" fill="#FFE000"/>
<path d="M155.777 47.119L151.994 75.655L141.62 74.2544L146.034 44.8942L155.777 47.119Z" fill="#FFE000"/>
<path d="M197.336 66.4105L197.284 66.6606C193.482 72.8253 187.551 76.0843 179.55 76.4669C179.085 76.4927 178.62 76.4927 178.155 76.4669C175.299 76.303 172.52 75.477 170.037 74.0539C169.856 73.9726 169.682 73.8766 169.516 73.767C165.317 71.332 162.102 65.8809 161.647 58.5317C160.986 47.703 168.444 40.4053 179.697 39.2724C180.468 39.2136 181.253 39.14 182.009 39.1032C182.596 39.1032 183.161 39.1032 183.712 39.1032C190.047 38.7795 194.605 41.2439 196.924 43.6569L193.643 47.4087L190.81 50.6455H190.773C190.777 50.6336 190.777 50.6207 190.773 50.6088C189.944 49.5042 188.858 48.6197 187.609 48.0324C186.36 47.4451 184.987 47.1729 183.609 47.2395C181.246 47.3523 178.579 48.3602 175.608 50.2631C170.433 55.0889 170.118 59.5764 174.632 64.1521C175.535 64.7333 176.401 65.3291 177.245 65.3291C178.354 66.1356 179.723 66.4977 181.084 66.3443C182.176 66.2835 183.238 65.9719 184.19 65.4336C185.143 64.8953 185.958 64.1447 186.575 63.2399L186.406 61.8348L181.451 61.673H181.414L178.126 61.033L179.337 52.7201L188.513 52.1757H189.202L197.416 51.8226L197.336 66.4105Z" fill="#FFE000"/>
<path d="M231.541 21.6157L233.226 69.307L223.23 69.8353L222.819 52.2739L214.964 53.5538L216.484 67.5285L206.548 68.6745L205.268 55.1239L200.521 55.9201L199.915 52.0357L204.841 50.3019L203.216 32.9488L212.561 31.3936L214.23 46.9533L222.631 43.9694L222.115 22.6054L231.541 21.6157Z" fill="#FFE000"/>
<path d="M274.865 29.0981L273.744 40.7455L258.589 41.019L259.04 73.8806L245.175 74.8236L248.335 40.5367L234.892 40.1552L235.642 29.4077L274.865 29.0981Z" fill="#FFE000"/>
<path d="M282.41 63.1842L275.698 62.0475L278.525 32.4177L290.688 28.2666L282.41 63.1842Z" fill="#FFE000"/>
<path d="M278.083 66.5147C278.758 66.5319 279.418 66.7024 280.007 67.0114C280.596 67.3205 281.095 67.7588 281.463 68.2887C281.87 68.8546 282.147 69.4934 282.277 70.1647C282.406 70.836 282.385 71.5252 282.215 72.1886C281.915 73.6455 281.082 74.9594 279.859 75.9054C279.317 76.38 278.679 76.749 277.982 76.9907C277.286 77.2324 276.545 77.342 275.803 77.3132C275.128 77.2936 274.469 77.1213 273.882 76.8111C273.295 76.5009 272.797 76.0621 272.431 75.5323C272.024 74.9673 271.748 74.3296 271.618 73.6596C271.489 72.9896 271.509 72.3018 271.678 71.6395C271.978 70.1804 272.811 68.8641 274.034 67.9156C274.575 67.4421 275.212 67.0743 275.908 66.8338C276.603 66.5933 277.343 66.4848 278.083 66.5147Z" fill="#FFE000"/>
<path d="M43.2583 158L73.0933 122.895L36.6938 144.265L43.2583 158Z" fill="#0043C0"/>
<path d="M78.9824 103.983L44.9678 125.451L41.8699 111.679L78.9824 103.983Z" fill="#0043C0"/>
<path d="M101.101 107.402L83.9888 139.807L93.6019 147.196L101.101 107.402Z" fill="#0043C0"/>
<path d="M36.3754 71.8982L44.415 74.2671L39.3011 80.8953L39.5347 89.2664L31.6303 86.4678L23.7382 89.2664L23.9717 80.8953L18.8578 74.2671L26.8975 71.8982L31.6303 65L36.3754 71.8982Z" fill="#0043C0"/>
<path d="M31.6304 83.9023L26.2461 85.8171L26.4059 80.1096L22.9147 75.5803L28.3973 73.9724L31.6304 69.2591L34.8757 73.9724L40.3584 75.5803L36.8672 80.1096L37.027 85.8171L31.6304 83.9023Z" fill="#FDF028"/>
<path d="M23.5288 109.642L31.6299 116.491L22.3118 121.56L18.292 131.367L10.5843 124.089L-4.31629e-05 123.291L4.54839 113.717L2.0283 103.419L12.5634 104.793L21.5865 99.2207L23.5288 109.642Z" fill="#0043C0"/>
<path d="M11.8873 121.13L4.67135 120.578L7.78147 114.048L6.06042 107.027L13.2396 107.96L19.3983 104.155L20.7382 111.262L26.2578 115.938L19.9023 119.4L17.1487 126.102L11.8873 121.13Z" fill="#FDF028"/>
</svg>
