<svg width="144" height="144" viewBox="0 0 144 144" fill="none" xmlns="http://www.w3.org/2000/svg">
<mask id="mask0_301_394" style="mask-type:alpha" maskUnits="userSpaceOnUse" x="0" y="0" width="144" height="144">
<rect x="0.5" y="-0.5" width="143" height="143" rx="12.5" transform="matrix(1 0 0 -1 0 143)" fill="white" stroke="#0043C0"/>
</mask>
<g mask="url(#mask0_301_394)">
<path opacity="0.1" fill-rule="evenodd" clip-rule="evenodd" d="M-35.2269 -59.2772L-27.828 -61.6399L-20.429 -64L44.1619 37.3939L-35.2269 -59.2772ZM87.373 -55.3518L95.8497 -53.5959L104.324 -51.8372L76.5474 48.9123L87.373 -55.3518ZM152.622 -35.2229L160.086 -31.3512L167.552 -27.4795L90.0687 53.2458L152.622 -35.2229ZM193.396 2.39579L187.631 -2.68948L86.2201 64.4742L199.161 7.47838L193.396 2.39579ZM220.643 36.4166L223.79 42.4416L226.934 48.4639L89.2033 71.6725L220.643 36.4166ZM246.836 93.1305L247 86.8907L102.555 79.8052L246.675 99.373L246.836 93.1305ZM228.982 124.206L225.956 129.877L222.927 135.547L90.3831 85.6476L228.982 124.206ZM188.883 174.745L195.097 171.09L90.281 87.4734L182.67 178.401L188.883 174.745ZM141.789 194.006L133.855 195.504L125.921 197L80.2644 91.8391L141.789 194.006ZM68.4927 194.412L77.0446 195.282L67.3608 88.7792L67.8558 86.8289L32.5703 167.525L39.679 168.679L46.7877 169.831L67.3552 88.8013L59.9408 193.542L68.4927 194.412ZM7.78799 185.828L0.093399 182.061L-7.60387 178.291L59.1398 93.6836L7.78799 185.828ZM-52.9516 158.323L-46.6465 163.25L43.9899 90.9316L-59.2594 153.394L-52.9516 158.323ZM-78.8224 119.137L-82.5743 113.08L-86.3289 107.025L46.3684 80.6375L-78.8224 119.137ZM-102.323 66.3026L-101.645 72.6472L40.7164 73.3157L-68.5747 63.1598L48.2471 71.2912L-71.5417 52.8941L-72.7108 57.8424L-73.8487 62.6697L-103 59.9608L-102.323 66.3026ZM-96.2219 26.3481L-93.7305 20.597L-91.2391 14.8458L43.5384 66.0878L-96.2219 26.3481ZM-63.6106 -15.3785L-68.9267 -11.0208L48.8249 62.2753L-58.2972 -19.7361L-63.6106 -15.3785ZM44.6134 -59.2101L36.1582 -59.1752L66.1599 47.449L53.0686 -59.2477L44.6134 -59.2101ZM64.5447 -30.3282H71.8468H79.1517L71.8468 53.7747L64.5447 -30.3282ZM123.669 -13.9716L116.872 -15.8081L78.805 64.2916L130.466 -12.1378L123.669 -13.9716ZM172.89 -9.53879L178.235 -6.12355L183.581 -2.70831L94.7371 55.4313L172.89 -9.53879ZM207.651 31.8576L204.498 27.3334L97.1156 68.1552L210.803 36.379L207.651 31.8576ZM219.221 66.1308L219.742 71.1301L220.264 76.1322L97.5187 77.131L219.221 66.1308ZM207.697 107.992L209.879 103.21L90.7594 82.8633L205.514 112.776L207.697 107.992ZM192.759 136.667L188.177 140.571L183.594 144.472L92.7644 87.7982L192.759 136.667ZM137.274 155.947L143.619 153.466L76.6362 82.8633L130.926 158.428L137.274 155.947ZM99.9832 176.774L92.7563 177.486L85.5267 178.2L75.3138 94.2394L99.9832 176.774ZM2.40208 154.806L-3.59663 151.947L-9.59533 149.09L66.2862 82.8633L2.40208 154.806ZM-51.0488 132.696L-46.9905 136.865L50.8325 85.9698L-55.107 128.529L-51.0488 132.696ZM-63.6885 100.901L-65.242 96.0007L-66.7927 91.1034L54.493 78.1217L-63.6885 100.901ZM-56.6927 26.1494L-52.965 21.8401L-49.24 17.5281L52.4182 64.7507L-56.6927 26.1494ZM-20.6816 -5.18382L-26.4519 -2.10688L54.493 61.2334L-14.9141 -8.25807L-20.6816 -5.18382ZM27.0957 -11.7002L34.1049 -13.1124L41.1115 -14.5247L68.6325 67.5833L27.0957 -11.7002Z" fill="#00B7FF"/>
</g>
</svg>
