<?xml version="1.0" encoding="UTF-8"?>
<svg xmlns="http://www.w3.org/2000/svg" xmlns:xlink="http://www.w3.org/1999/xlink" width="115px" height="115px" viewBox="0 0 114 42" version="1.1">
<defs>
<linearGradient id="linear0" gradientUnits="userSpaceOnUse" x1="426.751" y1="-632.71" x2="416.733" y2="-614.042" gradientTransform="matrix(0.423006,0,0,-0.424875,-174.892074,-246.070487)">
<stop offset="0" style="stop-color:rgb(0%,43.921569%,71.372549%);stop-opacity:1;"/>
<stop offset="1" style="stop-color:rgb(11.372549%,17.254902%,36.862745%);stop-opacity:1;"/>
</linearGradient>
<linearGradient id="linear1" gradientUnits="userSpaceOnUse" x1="548.926" y1="-594.572" x2="561.641" y2="-580.948" gradientTransform="matrix(0.423006,0,0,-0.424875,-174.892074,-246.070487)">
<stop offset="0" style="stop-color:rgb(0%,43.921569%,71.372549%);stop-opacity:1;"/>
<stop offset="1" style="stop-color:rgb(11.372549%,17.254902%,36.862745%);stop-opacity:1;"/>
</linearGradient>
<linearGradient id="linear2" gradientUnits="userSpaceOnUse" x1="493.453" y1="-617.286" x2="491.937" y2="-604.548" gradientTransform="matrix(0.423006,0,0,-0.424875,-174.892074,-246.070487)">
<stop offset="0" style="stop-color:rgb(0%,43.921569%,71.372549%);stop-opacity:1;"/>
<stop offset="1" style="stop-color:rgb(11.372549%,17.254902%,36.862745%);stop-opacity:1;"/>
</linearGradient>
<linearGradient id="linear3" gradientUnits="userSpaceOnUse" x1="632.347" y1="-614.834" x2="631.742" y2="-603.336" gradientTransform="matrix(0.423006,0,0,-0.424875,-174.892074,-246.070487)">
<stop offset="0" style="stop-color:rgb(7.058824%,36.470588%,61.960784%);stop-opacity:1;"/>
<stop offset="1" style="stop-color:rgb(11.372549%,17.254902%,36.862745%);stop-opacity:1;"/>
</linearGradient>
<linearGradient id="linear4" gradientUnits="userSpaceOnUse" x1="589.912" y1="-598.261" x2="576.568" y2="-619.489" gradientTransform="matrix(0.423006,0,0,-0.424875,-174.892074,-246.070487)">
<stop offset="0" style="stop-color:rgb(7.058824%,36.470588%,61.960784%);stop-opacity:1;"/>
<stop offset="1" style="stop-color:rgb(11.372549%,17.254902%,36.862745%);stop-opacity:1;"/>
</linearGradient>
<linearGradient id="linear5" gradientUnits="userSpaceOnUse" x1="471.821" y1="-632.309" x2="480.919" y2="-650.202" gradientTransform="matrix(0.423006,0,0,-0.424875,-174.892074,-246.070487)">
<stop offset="0" style="stop-color:rgb(6.27451%,37.254902%,63.137255%);stop-opacity:1;"/>
<stop offset="1" style="stop-color:rgb(11.372549%,17.254902%,36.862745%);stop-opacity:1;"/>
</linearGradient>
<linearGradient id="linear6" gradientUnits="userSpaceOnUse" x1="437.492" y1="-626.202" x2="448.022" y2="-650.612" gradientTransform="matrix(0.423006,0,0,-0.424875,-174.892074,-246.070487)">
<stop offset="0" style="stop-color:rgb(6.27451%,37.254902%,63.137255%);stop-opacity:1;"/>
<stop offset="1" style="stop-color:rgb(11.372549%,17.254902%,36.862745%);stop-opacity:1;"/>
</linearGradient>
<linearGradient id="linear7" gradientUnits="userSpaceOnUse" x1="639.706" y1="2062.77" x2="655.635" y2="2062.77" gradientTransform="matrix(0.423006,0,0,0.424875,-240.880942,-852.579572)">
<stop offset="0" style="stop-color:rgb(23.529412%,35.294118%,65.098039%);stop-opacity:1;"/>
<stop offset="0.933" style="stop-color:rgb(16.862745%,45.098039%,72.54902%);stop-opacity:1;"/>
<stop offset="1" style="stop-color:rgb(16.470588%,45.882353%,73.333333%);stop-opacity:1;"/>
</linearGradient>
<linearGradient id="linear8" gradientUnits="userSpaceOnUse" x1="578.628" y1="2056.257" x2="844.371" y2="2056.257" gradientTransform="matrix(0.423006,0,0,0.424875,-243.186746,-853.295911)">
<stop offset="0" style="stop-color:rgb(23.529412%,35.294118%,65.098039%);stop-opacity:1;"/>
<stop offset="0.933" style="stop-color:rgb(16.862745%,45.098039%,72.54902%);stop-opacity:1;"/>
<stop offset="1" style="stop-color:rgb(16.470588%,45.882353%,73.333333%);stop-opacity:1;"/>
</linearGradient>
</defs>
<g id="surface1">
<path style=" stroke:none;fill-rule:nonzero;fill:url(#linear0);" d="M 0 15.5625 L 5.074219 24.1875 L 7.105469 22.230469 L 1.566406 13.945312 Z M 0 15.5625 "/>
<path style=" stroke:none;fill-rule:nonzero;fill:rgb(0%,44.313725%,72.54902%);fill-opacity:1;" d="M 75.546875 8.761719 L 75.335938 9.910156 L 77.75 9.101562 L 77.453125 7.703125 Z M 75.546875 8.761719 "/>
<path style=" stroke:none;fill-rule:nonzero;fill:url(#linear1);" d="M 61.335938 0.988281 L 53.511719 9.996094 L 55.792969 9.359375 L 63.238281 0.0117188 Z M 61.335938 0.988281 "/>
<path style=" stroke:none;fill-rule:nonzero;fill:rgb(11.372549%,17.254902%,36.862745%);fill-opacity:1;" d="M 103.253906 13.308594 L 105.160156 12.289062 L 104.609375 17.132812 Z M 103.253906 13.308594 "/>
<path style=" stroke:none;fill-rule:nonzero;fill:rgb(11.372549%,17.254902%,36.862745%);fill-opacity:1;" d="M 91.285156 16.410156 L 93.019531 16.792969 L 95.175781 15.730469 L 93.273438 15.007812 Z M 91.285156 16.410156 "/>
<path style=" stroke:none;fill-rule:nonzero;fill:url(#linear2);" d="M 32.402344 11.3125 L 32.65625 16.878906 L 35.066406 15.945312 L 34.347656 10.25 Z M 32.402344 11.3125 "/>
<path style=" stroke:none;fill-rule:nonzero;fill:url(#linear3);" d="M 93.144531 9.613281 L 91.242188 10.675781 L 91.285156 16.410156 L 93.230469 15.433594 L 93.824219 12.628906 Z M 93.144531 9.613281 "/>
<path style=" stroke:none;fill-rule:nonzero;fill:rgb(19.215686%,13.72549%,43.921569%);fill-opacity:1;" d="M 92.890625 16.792969 L 90.777344 35.65625 L 94.160156 34.976562 L 94.796875 15.773438 Z M 92.890625 16.792969 "/>
<path style=" stroke:none;fill-rule:nonzero;fill:rgb(12.941176%,21.960784%,43.137255%);fill-opacity:1;" d="M 96.996094 36.550781 L 97.078125 39.101562 L 103.550781 41.179688 L 105.496094 40.160156 L 99.109375 35.191406 L 92.679688 34.636719 L 90.777344 35.65625 Z M 96.996094 36.550781 "/>
<path style=" stroke:none;fill-rule:nonzero;fill:rgb(12.941176%,21.960784%,43.137255%);fill-opacity:1;" d="M 72.96875 32.046875 L 74.535156 31.195312 L 75.589844 33.066406 L 77.070312 32.257812 L 77.367188 34.722656 L 86.800781 36.421875 L 88.660156 35.359375 L 75.675781 27.414062 L 66.453125 28.988281 L 64.675781 30.730469 Z M 72.96875 32.046875 "/>
<path style=" stroke:none;fill-rule:nonzero;fill:url(#linear4);" d="M 69.964844 8.847656 L 68.0625 9.910156 L 64.675781 30.730469 L 66.582031 29.710938 L 69.839844 18.027344 Z M 69.964844 8.847656 "/>
<path style=" stroke:none;fill-rule:nonzero;fill:rgb(11.372549%,17.254902%,36.862745%);fill-opacity:1;" d="M 54.90625 11.652344 L 53.382812 12.460938 L 53.511719 12.96875 L 57.105469 10.675781 L 55.539062 8.976562 L 53.511719 9.996094 Z M 54.90625 11.652344 "/>
<path style=" stroke:none;fill-rule:nonzero;fill:rgb(12.941176%,21.960784%,43.137255%);fill-opacity:1;" d="M 59.007812 36.253906 L 43.652344 28.605469 L 45.558594 27.117188 L 60.914062 35.191406 Z M 59.007812 36.253906 "/>
<path style=" stroke:none;fill-rule:nonzero;fill:rgb(11.372549%,17.254902%,36.862745%);fill-opacity:1;" d="M 45.09375 7.785156 L 42.765625 12.207031 L 45.21875 11.484375 L 46.996094 6.722656 Z M 45.09375 7.785156 "/>
<path style=" stroke:none;fill-rule:nonzero;fill:url(#linear5);" d="M 23.941406 26.097656 L 21.996094 27.457031 C 21.996094 27.457031 22.417969 29.667969 22.96875 31.195312 C 23.519531 32.726562 24.789062 33.957031 24.789062 33.957031 C 25.632812 34.765625 26.605469 35.359375 27.75 35.699219 C 29.90625 36.339844 32.359375 35.914062 34.476562 34.554688 C 35.023438 34.214844 35.785156 33.660156 36.25 33.195312 C 34.179688 34.46875 23.941406 26.097656 23.941406 26.097656 Z M 23.941406 26.097656 "/>
<path style=" stroke:none;fill-rule:nonzero;fill:rgb(11.372549%,17.254902%,36.862745%);fill-opacity:1;" d="M 34.476562 16.453125 L 36.25 36.296875 L 43.613281 35.234375 L 45.558594 34.214844 L 36.464844 15.265625 L 34.601562 15.902344 L 32.65625 16.878906 Z M 34.476562 16.453125 "/>
<path style=" stroke:none;fill-rule:nonzero;fill:url(#linear6);" d="M 6.980469 23.335938 L 15.1875 41.988281 L 22.96875 39.480469 L 24.871094 38.207031 L 8.714844 21.210938 L 6.683594 22.445312 L 5.074219 24.1875 Z M 6.980469 23.335938 "/>
<path style=" stroke:none;fill-rule:nonzero;fill:rgb(11.372549%,17.254902%,36.862745%);fill-opacity:1;" d="M 88.15625 32.132812 L 88.28125 33.066406 C 88.957031 32.980469 89.636719 32.898438 90.269531 32.683594 C 90.988281 32.429688 92.511719 31.75 93.0625 31.238281 C 92.808594 31.324219 89.253906 32.257812 88.15625 32.132812 "/>
<path style=" stroke:none;fill-rule:nonzero;fill:rgb(11.372549%,17.254902%,36.862745%);fill-opacity:1;" d="M 60.617188 27.375 L 60.914062 28.859375 C 62.476562 28.605469 63.832031 28.054688 65.183594 27.246094 C 66.03125 26.734375 66.917969 26.011719 67.214844 25.800781 C 67.003906 25.929688 60.617188 27.375 60.617188 27.375 Z M 60.617188 27.375 "/>
<path style=" stroke:none;fill-rule:nonzero;fill:rgb(100%,79.607843%,1.960784%);fill-opacity:1;" d="M 17.320312 40.210938 L 16.730469 38.851562 L 8.945312 21.429688 L 8.777344 21.089844 L 8.4375 21.261719 L 8.183594 21.386719 L 6.789062 22.066406 C 6.578125 21.726562 6.238281 21.132812 6.027344 20.75 L 2.898438 15.441406 L 2.09375 14.039062 L 3.445312 13.1875 C 4.714844 12.382812 6.15625 11.617188 7.761719 10.9375 C 10.890625 9.621094 14.066406 8.898438 16.984375 8.898438 C 17.957031 8.898438 18.886719 8.980469 19.734375 9.109375 C 21.171875 9.28125 22.523438 9.746094 23.625 10.511719 C 25.273438 11.445312 26.585938 12.890625 27.304688 14.589844 C 27.898438 15.992188 28.023438 17.648438 27.644531 19.347656 L 27.429688 20.367188 L 28.277344 19.773438 C 28.828125 19.347656 29.417969 19.007812 30.054688 18.753906 C 31.152344 18.285156 32.296875 18.03125 33.4375 18.03125 C 34.539062 18.03125 35.554688 18.246094 36.484375 18.667969 L 37.074219 18.925781 L 37.035156 18.246094 L 36.78125 15.398438 L 36.738281 14.929688 L 36.316406 15.058594 L 35.003906 15.398438 L 34.792969 10.554688 L 44.4375 7.453125 L 44.351562 11.234375 L 45.070312 11.402344 L 47.1875 7.367188 L 53.488281 12.976562 L 53.742188 13.230469 L 53.996094 12.976562 C 54.84375 12.167969 55.898438 11.488281 57.042969 11.019531 L 57.507812 10.808594 L 57.167969 10.382812 L 56.027344 8.980469 L 63.261719 0.613281 L 67.066406 6.304688 L 61.273438 9.449219 L 60.003906 10.128906 L 61.484375 10.171875 C 64.234375 10.214844 66.6875 11.402344 68.335938 13.441406 L 68.929688 14.207031 L 69.308594 14.675781 L 68.675781 15.355469 L 68.25 15.824219 L 66.8125 17.394531 L 66.558594 17.691406 L 66.855469 17.945312 L 68.210938 19.179688 L 68.71875 19.644531 L 68.84375 18.964844 L 69.351562 15.738281 L 69.476562 14.886719 L 69.605469 14.039062 L 70.367188 9.238281 L 77.558594 9.238281 L 77.601562 8.898438 L 77.726562 8.089844 L 83.988281 8.089844 L 85.511719 17.691406 L 85.59375 18.328125 L 86.101562 17.945312 C 86.738281 17.480469 87.414062 17.140625 88.132812 16.84375 C 89.105469 16.460938 90.078125 16.289062 91.09375 16.289062 C 92.277344 16.289062 93.421875 16.542969 94.394531 17.097656 C 94.4375 17.097656 94.4375 17.140625 94.519531 17.183594 L 94.984375 17.351562 L 95.027344 16.84375 L 95.15625 15.78125 L 95.195312 15.441406 L 94.859375 15.355469 L 93.589844 15.058594 L 93.546875 10.042969 L 103.234375 12.167969 L 103.953125 15.78125 L 104.714844 15.78125 L 105.476562 12.679688 L 113.554688 14.632812 L 105.265625 39.65625 L 99.382812 37.789062 L 99.34375 35.496094 L 99.34375 35.152344 L 99.003906 35.113281 L 93.125 34.261719 L 93.460938 31.246094 L 93.546875 30.523438 L 92.914062 30.863281 C 92.617188 31.03125 92.320312 31.160156 92.023438 31.246094 C 91.050781 31.628906 90.078125 31.796875 89.105469 31.796875 C 88.808594 31.796875 88.554688 31.796875 88.257812 31.753906 L 87.753906 31.710938 L 87.835938 32.222656 L 88.257812 34.855469 L 79.671875 33.328125 L 79.207031 29.417969 L 79.082031 28.144531 L 78.488281 29.25 L 77.515625 31.160156 L 75.695312 27.804688 L 75.148438 26.785156 L 74.976562 27.929688 L 74.597656 30.523438 L 67.066406 29.332031 L 67.660156 25.765625 L 67.785156 24.957031 L 67.066406 25.382812 C 65.839844 26.105469 64.402344 26.699219 62.753906 27.082031 C 62.160156 27.210938 61.566406 27.335938 60.933594 27.378906 L 60.59375 27.421875 L 60.59375 34.558594 L 45.789062 27.210938 L 45.238281 26.953125 L 45.238281 33.878906 L 38.597656 34.855469 L 38.300781 31.839844 L 38.21875 31.03125 L 37.625 31.585938 C 36.738281 32.433594 35.765625 33.113281 34.707031 33.582031 C 33.605469 34.050781 32.464844 34.304688 31.367188 34.304688 C 30.222656 34.304688 29.164062 34.050781 28.191406 33.625 C 26.417969 32.773438 25.105469 31.203125 24.554688 29.207031 C 24.300781 28.269531 24.214844 27.292969 24.34375 26.273438 L 24.46875 25.210938 L 23.710938 25.976562 C 23.160156 26.488281 22.566406 26.996094 21.933594 27.464844 L 21.722656 27.632812 L 21.804688 27.890625 L 24.046875 36.472656 L 24.429688 38 L 22.949219 38.46875 L 18.761719 39.828125 Z M 19.183594 17.140625 C 18.972656 17.140625 18.761719 17.140625 18.507812 17.183594 L 18.210938 17.222656 L 17.785156 17.308594 L 17.914062 17.734375 L 18 17.988281 L 19.183594 21.941406 L 19.308594 22.324219 L 19.480469 22.875 L 19.902344 22.492188 L 20.199219 22.238281 C 21.382812 21.175781 21.761719 20.113281 21.507812 18.753906 C 21.339844 17.945312 20.746094 17.566406 20.367188 17.394531 C 20.113281 17.222656 19.648438 17.140625 19.183594 17.140625 Z M 51.414062 17.265625 L 50.65625 17.988281 L 48.667969 19.902344 L 48.242188 20.324219 L 48.792969 20.539062 L 50.910156 21.347656 L 51.542969 21.601562 L 51.414062 20.921875 C 51.246094 20.027344 51.203125 19.136719 51.289062 18.285156 Z M 60.046875 15.058594 C 59.242188 15.058594 58.4375 15.398438 57.886719 16.035156 C 57.042969 16.96875 56.871094 18.371094 57.464844 19.476562 L 57.632812 19.773438 L 57.886719 20.242188 L 58.269531 19.816406 L 58.523438 19.5625 L 61.441406 16.246094 L 61.652344 15.992188 L 62.035156 15.566406 L 61.527344 15.355469 L 61.1875 15.226562 C 60.765625 15.144531 60.425781 15.058594 60.046875 15.058594 Z M 60.046875 15.058594 "/>
<path style=" stroke:none;fill-rule:nonzero;fill:rgb(49.019608%,49.803922%,40.784314%);fill-opacity:1;" d="M 64.464844 19.980469 L 64.382812 20.066406 C 64.421875 20.066406 64.464844 20.023438 64.464844 19.980469 Z M 64.464844 19.980469 "/>
<path style=" stroke:none;fill-rule:nonzero;fill:rgb(49.019608%,49.803922%,40.784314%);fill-opacity:1;" d="M 67.003906 17.6875 L 68.441406 16.113281 L 67.933594 16.625 L 67.933594 16.582031 L 67.511719 17.046875 L 66.074219 18.578125 L 67.425781 19.808594 L 67.679688 18.28125 L 68.359375 18.875 Z M 67.003906 17.6875 "/>
<path style=" stroke:none;fill-rule:nonzero;fill:rgb(49.019608%,49.803922%,40.784314%);fill-opacity:1;" d="M 67.003906 17.6875 L 68.359375 18.875 L 68.867188 15.648438 L 68.441406 16.113281 Z M 67.003906 17.6875 "/>
<path style=" stroke:none;fill-rule:nonzero;fill:rgb(78.039216%,62.745098%,3.137255%);fill-opacity:1;" d="M 56.980469 21.550781 C 57.105469 21.679688 56.980469 21.59375 57.105469 21.679688 L 57.992188 21.042969 C 57.867188 20.957031 57.742188 20.828125 57.613281 20.746094 C 56.34375 19.554688 56.683594 16.921875 57.488281 15.476562 C 55.285156 17.261719 55.414062 19.980469 56.980469 21.550781 "/>
<path style=" stroke:none;fill-rule:nonzero;fill:rgb(78.039216%,62.745098%,3.137255%);fill-opacity:1;" d="M 67.679688 23.039062 C 66.199219 24.273438 64.550781 25.035156 62.351562 25.589844 C 61.886719 25.714844 61.378906 25.800781 60.957031 25.800781 C 57.445312 26.140625 54.527344 24.527344 53.425781 21.933594 C 53.296875 21.636719 53.171875 21.296875 53.085938 20.957031 C 52.578125 18.75 53.003906 16.792969 54.101562 15.222656 C 54.230469 15.050781 54.3125 14.925781 54.441406 14.796875 C 54.398438 14.839844 54.3125 14.882812 54.273438 14.925781 C 53.847656 15.308594 53.46875 15.6875 53.171875 16.15625 C 52.070312 17.6875 51.648438 19.683594 52.15625 21.890625 C 52.242188 22.230469 52.324219 22.570312 52.496094 22.871094 C 53.59375 25.503906 56.554688 27.117188 60.023438 26.777344 C 60.488281 26.734375 60.957031 26.652344 61.460938 26.523438 C 63.664062 25.972656 65.355469 25.207031 66.792969 23.972656 C 67.132812 23.675781 67.511719 23.335938 67.851562 22.996094 L 67.808594 22.953125 C 67.722656 22.996094 67.679688 22.996094 67.679688 23.039062 "/>
<path style=" stroke:none;fill-rule:nonzero;fill:rgb(78.039216%,62.745098%,3.137255%);fill-opacity:1;" d="M 43.019531 16.367188 L 46.910156 10.84375 L 46.742188 10.71875 L 42.976562 16.027344 Z M 43.019531 16.367188 "/>
<path style=" stroke:none;fill-rule:nonzero;fill:rgb(78.039216%,62.745098%,3.137255%);fill-opacity:1;" d="M 68.867188 15.648438 L 68.359375 18.875 L 67.679688 18.28125 L 67.425781 19.808594 L 66.074219 18.578125 L 67.511719 17.046875 L 67.933594 16.582031 L 67.933594 16.625 L 68.441406 16.113281 Z M 68.867188 15.648438 "/>
<path style=" stroke:none;fill-rule:nonzero;fill:rgb(78.039216%,62.745098%,3.137255%);fill-opacity:1;" d="M 64.042969 6.554688 L 65.398438 5.960938 L 62.902344 2.730469 L 62.097656 3.921875 Z M 64.042969 6.554688 "/>
<path style=" stroke:none;fill-rule:nonzero;fill:rgb(78.039216%,62.745098%,3.137255%);fill-opacity:1;" d="M 26.140625 14.542969 C 19.796875 6.808594 8.417969 10.972656 4.355469 14.585938 L 4.527344 14.882812 C 5.457031 14.328125 6.472656 13.863281 7.488281 13.394531 C 11.546875 11.652344 15.441406 11.144531 18.527344 11.695312 C 19.628906 11.824219 20.769531 12.164062 21.785156 12.84375 C 23.179688 13.648438 24.238281 14.753906 24.871094 16.199219 C 25.972656 18.75 25 22.148438 22.417969 24.953125 C 25.675781 21.933594 27.917969 19.046875 26.140625 14.542969 Z M 26.140625 14.542969 "/>
<path style=" stroke:none;fill-rule:nonzero;fill:rgb(78.039216%,62.745098%,3.137255%);fill-opacity:1;" d="M 39.042969 23.550781 C 39 23.421875 39 23.25 38.957031 23.125 C 38.621094 21.851562 37.859375 20.828125 36.84375 20.148438 C 35.238281 19.046875 32.953125 18.832031 30.710938 19.769531 C 29.527344 20.277344 28.511719 21.085938 27.664062 22.019531 C 28.300781 21.46875 29.019531 21.042969 29.78125 20.703125 C 32.023438 19.726562 34.304688 19.980469 35.914062 21.085938 C 36.929688 21.765625 37.691406 22.785156 38.027344 24.058594 C 38.070312 24.1875 38.113281 24.355469 38.113281 24.484375 C 38.199219 24.992188 38.238281 25.460938 38.238281 25.972656 C 38.199219 27.457031 37.648438 28.945312 36.757812 30.21875 C 36.632812 30.433594 36.464844 30.601562 36.292969 30.816406 C 36.800781 30.347656 37.265625 29.878906 37.648438 29.328125 C 38.578125 28.054688 39.085938 26.566406 39.171875 25.078125 C 39.171875 24.570312 39.128906 24.058594 39.042969 23.550781 "/>
<path style=" stroke:none;fill-rule:nonzero;fill:rgb(78.039216%,62.745098%,3.137255%);fill-opacity:1;" d="M 32.824219 21.679688 C 32.824219 21.679688 33.753906 20.746094 33.714844 20.746094 C 32.570312 20.703125 32.0625 21.808594 32.023438 21.890625 C 32.273438 21.765625 32.527344 21.722656 32.824219 21.679688 "/>
<path style=" stroke:none;fill-rule:nonzero;fill:rgb(78.039216%,62.745098%,3.137255%);fill-opacity:1;" d="M 34.984375 22.996094 C 35.023438 23.167969 35.066406 23.292969 35.066406 23.464844 C 35.066406 23.71875 35.023438 23.929688 34.898438 24.144531 C 35.066406 24.058594 36.421875 23.378906 35.914062 22.019531 C 35.957031 22.105469 34.941406 22.996094 34.984375 22.996094 "/>
<path style=" stroke:none;fill-rule:nonzero;fill:rgb(78.039216%,62.745098%,3.137255%);fill-opacity:1;" d="M 29.738281 23.804688 C 29.738281 23.25 30.710938 21.851562 31.007812 21.382812 C 29.484375 22.359375 28.808594 23.675781 28.808594 24.695312 C 28.808594 26.480469 30.371094 27.925781 32.234375 27.925781 C 33.121094 27.925781 34.730469 27.457031 35.785156 25.757812 C 35.238281 26.140625 33.839844 26.992188 33.078125 26.992188 C 31.21875 26.992188 29.738281 25.589844 29.738281 23.804688 "/>
<path style=" stroke:none;fill-rule:nonzero;fill:rgb(78.039216%,62.745098%,3.137255%);fill-opacity:1;" d="M 42.808594 25.417969 L 42.851562 32.597656 L 43.992188 32.683594 L 43.738281 24.484375 Z M 42.808594 25.417969 "/>
<path style=" stroke:none;fill-rule:nonzero;fill:rgb(78.039216%,62.745098%,3.137255%);fill-opacity:1;" d="M 36.292969 11.695312 L 36.292969 12.332031 L 41.707031 10.71875 L 42.089844 17.644531 L 43.019531 16.367188 L 42.808594 9.445312 Z M 36.292969 11.695312 "/>
<path style=" stroke:none;fill-rule:nonzero;fill:rgb(78.039216%,62.745098%,3.137255%);fill-opacity:1;" d="M 52.578125 14.160156 L 47.546875 9.484375 L 46.910156 10.84375 L 51.394531 15.050781 Z M 52.578125 14.160156 "/>
<path style=" stroke:none;fill-rule:nonzero;fill:rgb(78.039216%,62.745098%,3.137255%);fill-opacity:1;" d="M 51.816406 22.871094 L 45.855469 20.871094 L 45.007812 21.808594 L 50.929688 24.1875 C 51.605469 25.460938 52.621094 26.566406 53.890625 27.332031 C 55.117188 28.09375 56.554688 28.5625 58.035156 28.691406 L 58.035156 31.621094 L 58.96875 32.089844 L 59.261719 27.671875 Z M 51.816406 22.871094 "/>
<path style=" stroke:none;fill-rule:nonzero;fill:rgb(78.039216%,62.745098%,3.137255%);fill-opacity:1;" d="M 61.378906 22.0625 C 62.859375 21.722656 63.664062 20.957031 64.421875 20.109375 C 63.875 20.574219 61.167969 21.171875 60.703125 21.296875 L 59.8125 22.273438 C 60.195312 22.273438 60.871094 22.191406 61.378906 22.0625 "/>
<path style=" stroke:none;fill-rule:nonzero;fill:rgb(78.039216%,62.745098%,3.137255%);fill-opacity:1;" d="M 58.714844 11.863281 C 56.007812 12.207031 54.609375 14.5 54.398438 14.753906 C 55.414062 13.90625 56.640625 13.265625 58.035156 12.96875 C 61.378906 12.164062 64.296875 13.183594 66.117188 15.433594 L 67.257812 14.5 C 65.4375 12.289062 62.054688 11.058594 58.714844 11.863281 "/>
<path style=" stroke:none;fill-rule:nonzero;fill:rgb(78.039216%,62.745098%,3.137255%);fill-opacity:1;" d="M 67.765625 22.953125 C 68.105469 22.699219 68.652344 22.402344 68.992188 22.0625 L 65.398438 18.832031 C 65.101562 19.171875 64.890625 19.726562 64.550781 19.980469 Z M 67.765625 22.953125 "/>
<path style=" stroke:none;fill-rule:nonzero;fill:rgb(78.039216%,62.745098%,3.137255%);fill-opacity:1;" d="M 86.25 31.621094 C 82.484375 28.476562 82.699219 21.808594 84.558594 19.683594 L 82.910156 9.1875 L 79.269531 9.65625 L 79.101562 10.589844 L 81.851562 10.589844 L 83.332031 20.109375 C 81.472656 22.230469 80.582031 25.078125 81.175781 27.714844 C 81.640625 29.753906 82.910156 31.367188 84.6875 32.300781 C 84.855469 32.386719 85.066406 32.472656 85.234375 32.554688 L 85.277344 32.683594 L 86.378906 32.855469 C 86.335938 32.898438 86.460938 31.707031 86.25 31.621094 Z M 86.25 31.621094 "/>
<path style=" stroke:none;fill-rule:nonzero;fill:rgb(78.039216%,62.745098%,3.137255%);fill-opacity:1;" d="M 71.742188 10.71875 L 71.574219 11.652344 L 75.71875 11.652344 L 76.945312 18.410156 L 77.875 17.472656 L 76.902344 10.335938 Z M 71.742188 10.71875 "/>
<path style=" stroke:none;fill-rule:nonzero;fill:rgb(78.039216%,62.745098%,3.137255%);fill-opacity:1;" d="M 78.847656 23.804688 L 77.496094 27.289062 L 77.832031 28.222656 L 79.738281 22.910156 Z M 78.847656 23.804688 "/>
<path style=" stroke:none;fill-rule:nonzero;fill:rgb(78.039216%,62.745098%,3.137255%);fill-opacity:1;" d="M 74.871094 21.636719 L 73.941406 22.570312 L 72.925781 28.859375 L 73.898438 29.199219 Z M 74.871094 21.636719 "/>
<path style=" stroke:none;fill-rule:nonzero;fill:rgb(78.039216%,62.745098%,3.137255%);fill-opacity:1;" d="M 93.527344 19.597656 C 94.078125 19.980469 94.542969 20.488281 94.878906 21.085938 C 95.175781 21.550781 95.34375 22.019531 95.515625 22.613281 C 95.980469 24.527344 95.429688 26.566406 94.246094 28.179688 C 94.117188 28.351562 93.992188 28.519531 93.863281 28.648438 C 94.332031 28.222656 100.253906 23.847656 94.5 18.109375 C 88.15625 16.027344 85.742188 20.148438 85.53125 20.449219 C 86.207031 19.894531 86.96875 19.386719 87.816406 19.089844 C 89.929688 18.238281 92.046875 18.535156 93.527344 19.597656 "/>
<path style=" stroke:none;fill-rule:nonzero;fill:rgb(78.039216%,62.745098%,3.137255%);fill-opacity:1;" d="M 90.355469 20.023438 C 90.355469 20.066406 91.285156 19.089844 91.285156 19.089844 C 90.140625 19.128906 89.59375 19.683594 89.675781 19.9375 C 89.59375 20.023438 89.550781 20.148438 89.507812 20.234375 C 89.71875 20.109375 90.183594 20.023438 90.355469 20.023438 "/>
<path style=" stroke:none;fill-rule:nonzero;fill:rgb(78.039216%,62.745098%,3.137255%);fill-opacity:1;" d="M 92.46875 21.46875 C 92.511719 21.636719 92.511719 21.765625 92.511719 21.933594 C 92.511719 22.148438 92.425781 22.359375 92.34375 22.53125 C 92.511719 22.445312 93.863281 22.019531 93.355469 20.488281 C 93.398438 20.574219 92.425781 21.46875 92.46875 21.46875 "/>
<path style=" stroke:none;fill-rule:nonzero;fill:rgb(78.039216%,62.745098%,3.137255%);fill-opacity:1;" d="M 89.464844 26.269531 C 90.734375 26.3125 92.171875 25.546875 93.1875 24.144531 C 90.609375 24.695312 87.859375 20.320312 88.113281 19.894531 C 87.140625 20.617188 86.25 21.976562 86.207031 22.953125 C 86.125 24.738281 87.605469 26.183594 89.464844 26.269531 "/>
<path style=" stroke:none;fill-rule:nonzero;fill:rgb(78.039216%,62.745098%,3.137255%);fill-opacity:1;" d="M 103.722656 37.613281 L 104.3125 37.996094 L 111.757812 15.5625 L 106.175781 14.285156 L 106.132812 15.605469 L 110.617188 16.582031 Z M 103.722656 37.613281 "/>
<path style=" stroke:none;fill-rule:nonzero;fill:rgb(78.039216%,62.745098%,3.137255%);fill-opacity:1;" d="M 94.878906 11.863281 L 94.921875 13.140625 L 100.84375 14.328125 L 103.128906 25.207031 L 104.058594 24.273438 L 101.859375 13.265625 Z M 94.878906 11.863281 "/>
<path style=" stroke:none;fill-rule:nonzero;fill:rgb(78.039216%,62.745098%,3.137255%);fill-opacity:1;" d="M 99.449219 24.273438 L 97.800781 33.535156 L 98.730469 33.832031 L 100.378906 23.335938 Z M 99.449219 24.273438 "/>
<path style=" stroke:none;fill-rule:nonzero;fill:rgb(78.039216%,62.745098%,3.137255%);fill-opacity:1;" d="M 22.589844 36.933594 L 19.839844 26.820312 L 18.824219 27.542969 L 21.402344 37.1875 Z M 22.589844 36.933594 "/>
<path style=" stroke:none;fill-rule:nonzero;fill:rgb(78.039216%,62.745098%,3.137255%);fill-opacity:1;" d="M 21.871094 21.765625 C 21.234375 22.445312 19.796875 23.761719 18.992188 24.273438 L 18.484375 22.699219 L 17.429688 19.214844 L 16.75 16.878906 L 16.074219 17.726562 L 16.75 20.066406 L 17.808594 23.507812 L 18.316406 25.078125 C 19.457031 24.441406 21.066406 23.082031 21.871094 21.765625 "/>
<path style=" stroke:none;fill-rule:nonzero;fill:rgb(49.019608%,49.803922%,40.784314%);fill-opacity:1;" d="M 61.125 15.773438 C 60.234375 15.433594 59.007812 15.519531 58.332031 16.285156 C 58.164062 16.453125 57.867188 16.878906 57.78125 17.089844 C 58.417969 16.582031 59.601562 16.453125 60.320312 16.75 Z M 61.125 15.773438 "/>
<path style=" stroke:none;fill-rule:nonzero;fill:rgb(49.019608%,49.803922%,40.784314%);fill-opacity:1;" d="M 21.109375 18.917969 C 21.023438 18.410156 20.515625 17.984375 20.261719 17.855469 C 19.839844 17.644531 19.035156 17.601562 18.484375 17.726562 C 18.570312 18.070312 18.695312 18.492188 18.738281 18.664062 C 18.949219 18.707031 19.332031 18.75 19.542969 18.832031 C 19.796875 18.960938 20.21875 19.214844 20.304688 19.769531 C 20.429688 20.449219 20.390625 21.128906 20.09375 21.636719 C 20.894531 20.871094 21.277344 20.023438 21.109375 18.917969 "/>
<path style=" stroke:none;fill-rule:nonzero;fill:rgb(23.529412%,35.294118%,65.098039%);fill-opacity:1;" d="M 22.480469 18.882812 C 22.101562 16.84375 19.4375 15.695312 16.773438 17.140625 L 17.449219 19.476562 L 18.507812 22.960938 L 19.015625 24.53125 C 21 23.300781 22.988281 21.726562 22.480469 18.882812 Z M 19.859375 22.066406 C 19.5625 21.132812 18.929688 19.09375 18.929688 19.09375 C 18.929688 19.09375 18.800781 18.667969 18.632812 18.160156 C 19.183594 18.074219 19.734375 18.117188 20.15625 18.328125 C 20.410156 18.457031 20.832031 18.710938 20.917969 19.265625 C 21.171875 20.367188 20.789062 21.21875 19.859375 22.066406 Z M 19.859375 22.066406 "/>
<path style=" stroke:none;fill-rule:nonzero;fill:rgb(20.784314%,40.392157%,69.019608%);fill-opacity:1;" d="M 62.5 15.652344 C 61.019531 14.292969 58.734375 14.378906 57.378906 15.863281 C 56.027344 17.351562 56.109375 19.644531 57.589844 21.007812 C 57.71875 21.132812 57.84375 21.21875 57.972656 21.304688 L 62.753906 15.863281 C 62.667969 15.824219 62.582031 15.738281 62.5 15.652344 Z M 58.015625 19.476562 C 57.550781 18.625 57.632812 17.523438 58.351562 16.757812 C 59.03125 16.035156 60.046875 15.824219 60.933594 16.164062 Z M 58.015625 19.476562 "/>
<path style=" stroke:none;fill-rule:nonzero;fill:rgb(11.764706%,17.647059%,37.254902%);fill-opacity:1;" d="M 68.867188 15.050781 L 66.242188 17.601562 L 68.738281 19.851562 Z M 68.867188 15.050781 "/>
<path style=" stroke:none;fill-rule:nonzero;fill:rgb(20.392157%,40%,68.627451%);fill-opacity:1;" d="M 93.355469 20.53125 C 93.398438 20.703125 93.398438 20.871094 93.398438 21.042969 C 93.355469 22.0625 92.425781 22.828125 91.285156 22.785156 C 90.140625 22.742188 89.253906 21.890625 89.296875 20.871094 C 89.339844 19.9375 90.183594 19.171875 91.199219 19.128906 C 90.988281 19.089844 90.777344 19.046875 90.566406 19.046875 C 88.660156 18.960938 87.140625 20.320312 87.054688 21.976562 C 86.96875 23.761719 88.40625 25.25 90.269531 25.292969 C 92.171875 25.375 93.695312 24.015625 93.78125 22.230469 C 93.90625 21.636719 93.695312 21.042969 93.355469 20.53125 "/>
<path style=" stroke:none;fill-rule:nonzero;fill:url(#linear7);" d="M 35.996094 22.570312 C 35.996094 23.589844 35.066406 24.398438 33.96875 24.398438 C 32.824219 24.398438 31.9375 23.589844 31.9375 22.570312 C 31.9375 21.636719 32.742188 20.828125 33.796875 20.746094 C 33.585938 20.703125 33.375 20.703125 33.164062 20.703125 C 31.261719 20.703125 29.78125 22.105469 29.78125 23.804688 C 29.78125 25.589844 31.261719 26.992188 33.121094 26.992188 C 35.023438 26.992188 36.503906 25.589844 36.503906 23.804688 C 36.503906 23.167969 36.292969 22.613281 35.957031 22.105469 C 35.957031 22.230469 35.996094 22.402344 35.996094 22.570312 "/>
<path style=" stroke:none;fill-rule:nonzero;fill:url(#linear8);" d="M 105.136719 12.296875 L 104.292969 15.78125 L 103.53125 11.914062 L 93.125 9.621094 L 93.207031 15.441406 L 94.773438 15.78125 L 94.648438 16.84375 C 94.648438 16.84375 94.605469 16.84375 94.605469 16.800781 C 92.660156 15.78125 90.246094 15.652344 88.007812 16.542969 C 87.246094 16.84375 86.523438 17.222656 85.890625 17.691406 L 84.324219 7.75 L 77.429688 7.75 L 77.261719 8.898438 L 69.984375 8.898438 L 69.140625 13.996094 L 68.546875 13.230469 C 66.769531 11.0625 64.234375 9.875 61.398438 9.789062 L 67.574219 6.476562 L 63.261719 0.015625 L 55.476562 9.023438 L 56.832031 10.679688 C 55.605469 11.191406 54.546875 11.871094 53.65625 12.722656 L 46.972656 6.773438 L 44.648438 11.234375 L 44.730469 6.898438 L 34.285156 10.257812 L 34.582031 15.863281 L 36.355469 15.398438 L 36.609375 18.246094 C 34.582031 17.308594 32.125 17.351562 29.886719 18.328125 C 29.207031 18.625 28.574219 18.964844 28.023438 19.390625 C 28.40625 17.648438 28.320312 15.949219 27.644531 14.421875 C 26.882812 12.636719 25.484375 11.105469 23.835938 10.171875 C 22.652344 9.363281 21.253906 8.898438 19.773438 8.726562 C 16.179688 8.089844 11.824219 8.726562 7.550781 10.554688 C 5.984375 11.234375 4.503906 12 3.191406 12.847656 L 1.542969 13.910156 L 2.558594 15.609375 L 5.6875 20.964844 L 6.660156 22.578125 L 8.355469 21.726562 L 8.609375 21.601562 L 16.390625 39.019531 L 17.152344 40.675781 L 18.886719 40.125 L 23.074219 38.765625 L 24.9375 38.171875 L 24.46875 36.300781 L 22.230469 27.71875 C 22.863281 27.25 23.457031 26.742188 24.003906 26.1875 C 23.878906 27.210938 23.960938 28.269531 24.214844 29.25 C 24.808594 31.332031 26.164062 32.988281 28.066406 33.878906 C 30.097656 34.855469 32.59375 34.855469 34.875 33.878906 C 36.019531 33.371094 37.074219 32.691406 37.921875 31.796875 L 38.21875 35.238281 L 45.578125 34.132812 L 45.578125 27.507812 L 60.933594 35.152344 L 60.933594 27.804688 C 61.566406 27.761719 62.160156 27.632812 62.792969 27.507812 C 64.488281 27.082031 65.925781 26.53125 67.234375 25.765625 L 66.601562 29.714844 L 74.894531 31.03125 L 75.359375 28.015625 L 77.515625 32.050781 L 78.828125 29.503906 L 79.292969 33.710938 L 88.683594 35.367188 L 88.175781 32.179688 C 89.445312 32.308594 90.796875 32.136719 92.109375 31.671875 C 92.40625 31.542969 92.742188 31.414062 92.996094 31.246094 L 92.617188 34.644531 L 98.878906 35.535156 L 98.917969 38.128906 L 105.433594 40.167969 L 113.9375 14.460938 Z M 68.421875 16.121094 L 68.84375 15.652344 L 68.335938 18.882812 L 66.984375 17.648438 Z M 62.921875 2.863281 L 65.207031 5.964844 L 58.691406 9.195312 L 58.226562 8.515625 C 58.226562 8.558594 62.921875 2.863281 62.921875 2.863281 Z M 19.816406 26.828125 L 22.398438 36.855469 L 18.210938 38.214844 L 9.582031 18.839844 C 9.117188 19.09375 8.226562 19.519531 7.464844 19.902344 L 4.335938 14.589844 C 5.5625 13.78125 6.957031 13.101562 8.394531 12.464844 C 12.457031 10.722656 16.347656 10.214844 19.4375 10.765625 C 20.535156 10.894531 21.679688 11.234375 22.695312 11.914062 C 24.089844 12.722656 25.148438 13.824219 25.78125 15.269531 C 27.304688 18.753906 24.808594 23.769531 19.816406 26.828125 Z M 39.148438 25.042969 C 39.105469 26.53125 38.554688 28.015625 37.625 29.289062 C 36.738281 30.523438 35.554688 31.5 34.113281 32.136719 C 30.476562 33.710938 26.839844 32.136719 25.867188 28.652344 C 24.9375 25.296875 27.136719 21.304688 30.644531 19.773438 C 32.886719 18.796875 35.171875 19.050781 36.78125 20.15625 C 37.796875 20.835938 38.554688 21.855469 38.894531 23.128906 C 38.9375 23.257812 38.980469 23.429688 38.980469 23.554688 C 39.148438 24.066406 39.148438 24.574219 39.148438 25.042969 Z M 58.988281 32.136719 L 43.71875 24.488281 L 43.757812 32.519531 L 39.824219 33.074219 L 39.53125 29.757812 C 40.757812 27.675781 41.179688 25.167969 40.542969 22.917969 C 40.207031 21.6875 39.570312 20.582031 38.683594 19.730469 L 38.132812 12.976562 L 36.355469 13.441406 L 36.273438 11.742188 L 42.617188 9.832031 L 43 16.375 L 47.652344 9.789062 L 52.261719 14.164062 L 45.875 20.921875 L 51.882812 23.300781 C 52.558594 24.574219 53.574219 25.636719 54.84375 26.445312 C 56.070312 27.210938 57.507812 27.675781 58.988281 27.804688 Z M 51.078125 21.007812 L 48.960938 20.199219 L 50.949219 18.285156 C 50.824219 19.179688 50.867188 20.070312 51.078125 21.007812 Z M 67.660156 23.046875 C 66.179688 24.277344 64.527344 25.042969 62.328125 25.59375 C 61.863281 25.722656 61.355469 25.808594 60.933594 25.808594 C 57.421875 26.148438 54.503906 24.53125 53.402344 21.941406 C 53.277344 21.644531 53.148438 21.304688 53.066406 20.964844 C 52.558594 18.753906 52.980469 16.800781 54.082031 15.226562 C 54.375 14.761719 54.757812 14.378906 55.179688 13.996094 C 56.195312 13.0625 57.507812 12.421875 58.988281 12.042969 C 62.328125 11.234375 65.25 12.253906 67.066406 14.460938 L 60.722656 21.261719 C 61.144531 21.347656 61.820312 21.21875 62.328125 21.089844 C 63.851562 20.707031 64.699219 19.902344 65.417969 19.050781 L 67.957031 21.347656 L 68.71875 22.027344 C 68.378906 22.40625 68.039062 22.746094 67.660156 23.046875 Z M 81.152344 32.09375 L 79.757812 22.917969 L 77.8125 27.972656 L 74.894531 21.644531 L 74.851562 21.644531 L 73.707031 28.992188 L 68.84375 28.144531 L 69.519531 24.066406 C 69.691406 23.894531 69.902344 23.726562 70.070312 23.511719 L 71.636719 21.898438 L 70.113281 20.496094 L 71.761719 10.722656 L 76.667969 10.722656 L 77.894531 17.480469 L 79.292969 9.660156 L 82.804688 9.660156 L 84.285156 19.179688 C 82.421875 21.304688 81.535156 24.148438 82.125 26.785156 C 82.589844 28.824219 83.859375 30.4375 85.636719 31.414062 C 85.804688 31.5 86.019531 31.585938 86.1875 31.671875 L 86.355469 32.902344 Z M 93.292969 29.078125 C 92.742188 29.460938 92.152344 29.800781 91.515625 30.011719 C 90.246094 30.480469 89.019531 30.609375 87.878906 30.351562 C 87.117188 30.183594 86.398438 29.886719 85.765625 29.460938 C 84.792969 28.738281 84.070312 27.71875 83.734375 26.402344 C 83.351562 24.828125 83.691406 23.128906 84.539062 21.644531 C 84.960938 20.921875 85.511719 20.242188 86.144531 19.644531 C 86.863281 19.007812 87.710938 18.457031 88.597656 18.117188 C 90.753906 17.308594 92.871094 17.605469 94.351562 18.667969 C 94.902344 19.050781 95.367188 19.5625 95.703125 20.15625 C 95.957031 20.625 96.167969 21.132812 96.296875 21.6875 C 96.761719 23.597656 96.210938 25.636719 95.027344 27.25 C 94.648438 27.972656 94.011719 28.570312 93.292969 29.078125 Z M 104.292969 37.746094 L 100.695312 36.683594 L 100.398438 23.34375 L 98.582031 33.625 L 94.648438 32.988281 L 94.941406 30.011719 C 97.523438 27.847656 98.878906 24.40625 98.117188 21.261719 C 97.777344 19.902344 97.101562 18.667969 96.085938 17.777344 L 96.421875 14.292969 L 94.941406 13.910156 L 94.984375 12.042969 L 101.753906 13.402344 L 104.039062 24.234375 L 106.363281 14.503906 L 111.523438 15.652344 Z M 104.292969 37.746094 "/>
<path style=" stroke:none;fill-rule:nonzero;fill:rgb(0%,0%,0%);fill-opacity:1;" d="M 109.136719 36.253906 L 109.304688 36.253906 C 109.515625 36.253906 109.683594 36.167969 109.683594 35.957031 C 109.683594 35.828125 109.558594 35.65625 109.304688 35.65625 L 109.136719 35.65625 Z M 109.136719 37.144531 L 108.882812 37.144531 L 108.882812 35.53125 C 109.007812 35.488281 109.136719 35.488281 109.347656 35.488281 C 109.601562 35.488281 109.769531 35.53125 109.855469 35.617188 C 109.9375 35.699219 110.023438 35.785156 110.023438 35.957031 C 110.023438 36.167969 109.898438 36.296875 109.726562 36.339844 C 109.855469 36.378906 109.980469 36.507812 109.980469 36.71875 C 110.023438 36.976562 110.066406 37.058594 110.066406 37.101562 L 109.8125 37.101562 C 109.769531 37.058594 109.726562 36.890625 109.683594 36.679688 C 109.644531 36.464844 109.558594 36.378906 109.347656 36.378906 L 109.136719 36.378906 Z M 109.429688 35.0625 C 108.796875 35.0625 108.289062 35.617188 108.289062 36.296875 C 108.289062 36.976562 108.796875 37.527344 109.472656 37.527344 C 110.109375 37.527344 110.617188 36.976562 110.617188 36.296875 C 110.574219 35.617188 110.066406 35.0625 109.429688 35.0625 Z M 109.429688 34.851562 C 110.234375 34.851562 110.828125 35.488281 110.828125 36.296875 C 110.828125 37.101562 110.191406 37.738281 109.390625 37.738281 C 108.585938 37.738281 107.949219 37.101562 107.949219 36.296875 C 107.992188 35.488281 108.628906 34.851562 109.429688 34.851562 Z M 109.429688 34.851562 "/>
</g>
</svg>
